<svg xmlns="http://www.w3.org/2000/svg" xmlns:xlink="http://www.w3.org/1999/xlink" width="150" height="177" viewBox="0 0 150 177">
  <defs>
    <filter id="B" x="0" y="19" width="99" height="158" filterUnits="userSpaceOnUse">
      <feOffset dy="3" input="SourceAlpha"/>
      <feGaussianBlur stdDeviation="3" result="blur"/>
      <feFlood flood-opacity="0.161"/>
      <feComposite operator="in" in2="blur"/>
      <feComposite in="SourceGraphic"/>
    </filter>
    <filter id="E" x="64" y="0" width="86" height="159" filterUnits="userSpaceOnUse">
      <feOffset dy="3" input="SourceAlpha"/>
      <feGaussianBlur stdDeviation="3" result="blur-2"/>
      <feFlood flood-opacity="0.161"/>
      <feComposite operator="in" in2="blur-2"/>
      <feComposite in="SourceGraphic"/>
    </filter>
  </defs>
  <g id="Group_28" data-name="Group 28" transform="translate(-223 -58)">
    <ellipse id="Ellipse_76" data-name="Ellipse 76" cx="57.5" cy="57" rx="57.5" ry="57" transform="translate(241 85)" fill="#f3f3f3"/>
    <path id="Subtraction_4" data-name="Subtraction 4" d="M37.6,97.867H0v-.98A8.8,8.8,0,0,0,7.763,87.93,8.8,8.8,0,0,0,0,78.974V77.167a8.813,8.813,0,0,0,7.727-8.953A8.813,8.813,0,0,0,0,59.262V57.448A8.821,8.821,0,0,0,7.691,48.5,8.822,8.822,0,0,0,0,39.55V37.729a8.831,8.831,0,0,0,7.654-8.945A8.831,8.831,0,0,0,0,19.839v-1.83A8.841,8.841,0,0,0,7.619,9.069,8.841,8.841,0,0,0,0,.128V0H37.6V97.866Z" transform="translate(267.775 85.068) rotate(16)" fill="#08ff00"/>
    <g transform="matrix(1, 0, 0, 1, 223, 58)" filter="url(#B)">
      <text id="B-2" data-name="B" transform="translate(12 128)" font-size="113" font-family="InkFree, Ink Free"><tspan x="0" y="0">B</tspan></text>
    </g>
    <g transform="matrix(1, 0, 0, 1, 223, 58)" filter="url(#E)">
      <text id="E-2" data-name="E" transform="translate(73 110)" font-size="114" font-family="InkFree, Ink Free"><tspan x="0" y="0">E</tspan></text>
    </g>
  </g>
</svg>
