<svg xmlns="http://www.w3.org/2000/svg" xmlns:xlink="http://www.w3.org/1999/xlink" width="1020" height="1080" viewBox="0 0 1020 1080">
  <defs>
    <clipPath id="clip-illus">
      <rect width="1020" height="1080"/>
    </clipPath>
  </defs>
  <g id="illus" clip-path="url(#clip-illus)">
    <g id="Symbols" transform="translate(322 0.596)">
      <g id="Scene_Plants" data-name="Scene/Plants" transform="translate(0 -0.596)">
        <path id="Leaf-Top" d="M212.517,18.619c5.719-2.471,12.981,1.123,9.5,8.266-3.73,7.65-16.01,7.1-22.934,6.584.7,0,3.306-7.057,4.128-8.1A23.539,23.539,0,0,1,212.517,18.619ZM140.876,157.8C138.819,159.384,140.707,157.953,140.876,157.8ZM217.091,55.282a6.66,6.66,0,0,1,.24,10.036c-3.432,3.422-9.348,2.984-13.749,2.405-1.992-.262-12.622-1.663-10-3.262a8.864,8.864,0,0,0-1.062.436q-.417,1.253-.869,2.494c.06.04.111.081.176.121-.07-.035-.119-.072-.181-.107a96.807,96.807,0,0,1-12.272,23.31,23.28,23.28,0,0,1,5.6-1.175c5.608-.408,17.1,4.486,10.478,11.506-6.345,6.73-15.246-1.306-21.971-2.7a315.566,315.566,0,0,1-22.812,25.107,1.8,1.8,0,0,1,1.06.971c3.128-1.373,6.421-3.4,9.273-3.846,4.117-.644,12.491-.728,15.378,3.039,3.549,4.635-.7,8.028-5.213,8.647-6.549.9-14.869-2.68-21-5.123a2.071,2.071,0,0,1-1.923-.749c-.135-.052-.27-.1-.4-.153-8.138,7.979-16.557,15.666-24.916,23.177h.257a21.718,21.718,0,0,1,6.862-2.68c5.643-1.055,12.2-.722,16.506,3.5,4.293,4.209,5.52,11.242.626,15.464-9.8,8.451-22.46-12.633-27.119-13.728-8.491,7.55-17.417,14.551-26.471,21.4a15.568,15.568,0,0,1,3.069-.456c8.542-.364,27.942,10.989,16.977,20.6-9.557,8.375-19.177-9.2-26.185-15.534-8.527,6.375-17.1,12.7-25.447,19.3a23.471,23.471,0,0,1,13.219.771c4.752,1.7,12.352,5.711,8.958,12.008-3.452,6.4-12.649,2.931-17.411.594-2.6-1.275-7.723-5.388-12.317-7.248C41.092,214.66,29.368,227.2,20.2,242.216A138.468,138.468,0,0,0,6.628,272.139c-2.135,6.668-6.239,17.841-6,26.677-2.411-17.788,4.752-38.627,12.094-54.032,6.752-14.167,16.381-26.41,27.478-37.3-2.217-7.979-23.78-20.44-10.145-27.038,7.238-3.487,14.106,3.279,15.286,10.128.809,4.708-1.109,10.47-3.057,14.9q5.228-4.973,10.8-9.592c5.124-4.257,10.36-8.375,15.64-12.436-7.914-8.176-14.62-30.722-3.268-33.763,16.761-4.476,7.229,25.309,5.779,30.908a.9.9,0,0,1-.753-.329c.065.523.145,1.084.245,1.65,10.1-7.731,20.342-15.292,30.274-23.228-.822-.671-2.054-3.131-3.053-4.46a48.273,48.273,0,0,1-5.914-9.553c-2.383-5.441-4.5-14.033,2.721-16.786,7.855-3,11,6.757,10.746,12.466-.172,3.95-1.456,7.642-2.227,11.482-.24,1.2.153,6.671-1.383,4.245a11.367,11.367,0,0,1-.052,1.933q2.677-2.148,5.317-4.342a2.063,2.063,0,0,1-.113-.664,2,2,0,0,1,2.95-1.71q3.488-2.956,6.9-6.01c4.81-4.326,9.692-8.779,14.548-13.334-.954-.9-.494-2.057-1.38-3.007s-2.7-1.54-3.746-2.433a26.282,26.282,0,0,1-6.266-8.532c-2.465-5.124-5.441-15.761,2.661-17.722,8.349-2.025,11.991,8.254,12.186,14.574a159.63,159.63,0,0,1-2.381,16.109c8.987-8.465,17.851-17.274,25.938-26.283-2.3-.141-8.577-5.147-9.828-6.49-3.053-3.274-7.8-10.4-1.971-13.745,5.186-2.962,11.121,2.026,13.026,6.673a63.074,63.074,0,0,1,1.121,10.906c3.352-3.824,6.56-7.68,9.561-11.559q3-3.868,5.657-7.954a3.741,3.741,0,0,1-1.051-1.136c-8.291-1.84-18.272-15.319-8.208-19.307,4.792-1.9,9.632,2.782,11.732,6.515.431.764,1,4.52,1.458,7.485A154.461,154.461,0,0,0,192.468,47.4a1.815,1.815,0,0,1-1.338-1.752c-3.939-2.5-7.046-4.58-9.648-9.136-1.616-2.83-4.457-9.252.8-10.5,6.839-1.628,10.53,8.779,10.816,13.825.033.586-.059,2.28-.162,3.831a2.289,2.289,0,0,1,.7.049c1.877-6.164,3.446-12.424,4.764-18.709-3.614-1.362-3.238-20.514-.647-23.109,5.794-5.812,9.189,3.194,8.65,7.833-.636,5.469-3.411,10.33-6.634,14.605-.346.453-.253.435-.3-.223a1.309,1.309,0,0,1-.356.718,82.341,82.341,0,0,1-.133,8.418,193.115,193.115,0,0,1-3.684,21.776q-.6,2.612-1.319,5.174a42.984,42.984,0,0,1,8.783-4.959C206.9,53.646,213.234,52.031,217.091,55.282ZM0,298.087a13.446,13.446,0,0,0,1.589,6.358A34.72,34.72,0,0,1,0,298.087Z" transform="translate(120.927 11.668) rotate(-3)" fill="#c1dee2" fill-rule="evenodd" opacity="0.2"/>
        <g id="Plant-Left" transform="translate(0 82.009)" opacity="0.5">
          <path id="Leaf" d="M216.669,125.265c6.679-9.524,19.075-33.712,28.475-37.116,6.056-2.192,4.29,20.482,4.365,24.805.291,16.727-1.337,33.348-3.347,49.934-3.624,29.915-15.47,56.554-31.719,82.014-8.361,13.1-18.169,26.361-31.752,34.534-6.251,3.765-13.774,4.395-19.949,7.639-7.192,3.775-3.276.723-6.517,8.216-4.5,10.4-5.94,23.827-8.022,34.928-9.561,50.961-32.709,320.358-28.7,372.194.356,4.6-6.049,5.693-6.37.084-1.7-29.74,13.01-235.7,20.432-303.05s14.931-126.857,22.46-150.16c9.136-28.271,25.635-62.268,39.369-88.632A313.632,313.632,0,0,1,216.669,125.265Z" transform="translate(66.607 51.871)" fill="#69a1ac" fill-rule="evenodd"/>
          <path id="Leaf-2" data-name="Leaf" d="M268.6,320.621c17.381-12.76,36.195,11.322,20.466,24.083-8.694,7.054-17.784,4.546-22.9-1.334-3.322,4.05-6.431,8.284-9.419,11.859-9.1,10.9-17.7,22.055-25.927,33.472-17.08,23.721-31.717,48.78-47.022,73.38-15.1,24.28-30.085,48.685-43.775,73.58-11.6,21.092-27.054,45.9-31.024,69.028,6.024-49.041,28.883-96.177,56.1-139.409,27-42.878,57.985-89.705,99.79-123.543C260.639,335.48,260.522,326.549,268.6,320.621Z" transform="translate(64.25 186.854)" fill="#c1dee2" fill-rule="evenodd"/>
          <path id="Leaf-3" data-name="Leaf" d="M3.041,244.049c9.726,1.9,25.619,23.9,33.636,32.286A313.972,313.972,0,0,1,63,308.042,536.268,536.268,0,0,1,109.567,384a706.011,706.011,0,0,1,51.814,134.845A556.068,556.068,0,0,1,177.1,607.291c.561,5.6,6.432,48.777-2.028,49.94-7.609,1.048-5.258-32.784-5.625-37.387-4.15-51.919-16.581-102.437-33.872-151.374-3.766-10.66-7.265-23.718-13.288-33.312-4.337-6.909-.031-4.5-7.654-7.114-6.545-2.248-14-1.7-20.7-4.449-14.56-5.97-26.219-17.562-36.439-29.222-19.86-22.661-35.6-47.175-43.8-76.211-4.551-16.1-8.733-32.291-11.054-48.888C2.035,264.985-3.224,242.824,3.041,244.049Z" transform="translate(0 143.825)" fill="#69a1ac" fill-rule="evenodd"/>
          <path id="Leaf-4" data-name="Leaf" d="M34.35,21.8c36.637,63.537,66.743,133.331,86.183,204.021,11.778,42.831,20.015,86.782,28.2,130.414C161.4,423.8,173.389,491.352,176.8,560.113c3.43,69.158,10.212,148.926-12.433,215.537,11.312-67.628.542-139.614-1.365-207.661-.911-32.485-3.551-64.652-7.016-96.948-3.362-31.328-8.853-62.507-13.967-93.588q-3.737-22.707-7.771-45.358c-.8-4.508-1.131-17.881-3.99-20.96-2.877-3.1-17.559-4.363-22.168-6.638-9.282-4.579-18.012-11.085-25.739-17.959-14.812-13.178-27.7-30.4-37.869-47.37-23.532-39.272-32.94-87.2-32.465-132.683C12.108,97.653,26.31,2.559,20.607,1.249q.515-.6.974-1.249Q28.058,10.845,34.35,21.8Z" transform="translate(7.073)" fill="#89c5cc" fill-rule="evenodd"/>
          <path id="Leaf-5" data-name="Leaf" d="M372.014,160.178c.566-.815,4.245-6.485,2.392-6.123,3.772-.739-5.188,6.253,4.21,1.963-4.463,4.215-1.887,9.691-1.828,15.362.1,9.211-1.443,18.344-3.177,27.356a187.607,187.607,0,0,1-12.752,41.346c-12.917,28.875-34.852,56.672-60.892,74.725-12.855,8.912-25.453,11.948-40.114,16.05-9.262,2.592-10,7.383-14.912,16.37-10.233,18.717-20.285,37.366-29.311,56.715-10.776,23.106-21.238,46.235-31.107,69.746-33.246,79.194-60.305,161.243-74.515,246.154-.348-50.037,11.228-101.574,25.828-149.268,10.637-34.748,24.482-68.246,39.251-101.405,3.578-8.032,9-18.366,10.522-27.234,1.063-6.215-2.19-12.189-3.68-18.736-5.806-25.49-5.391-54.047-.292-79.674,5.623-28.259,21.883-41.375,49.39-45.377,10.06-1.465,22.847-.928,32.07-5.218,10.05-4.67,14.2-20.024,19.911-29.878,15.349-26.475,33.587-51.865,54.528-74.171a176.89,176.89,0,0,1,18.649-17.158C360.358,168.389,369.17,164.284,372.014,160.178Z" transform="translate(64.839 90.775)" fill="#89c5cc" fill-rule="evenodd"/>
          <path id="Base" d="M83.739,476h97.62a7.948,7.948,0,0,1,7.947,7.947,7.851,7.851,0,0,1-.086,1.159l-7.545,51.163a31.789,31.789,0,0,1-31.449,27.151H114.871a31.79,31.79,0,0,1-31.449-27.151l-7.545-51.163a7.948,7.948,0,0,1,6.7-9.022A8.08,8.08,0,0,1,83.739,476Z" transform="translate(44.675 280.576)" fill="#c1dee2" fill-rule="evenodd"/>
        </g>
      </g>
    </g>
  </g>
</svg>
