<svg id="spice" xmlns="http://www.w3.org/2000/svg" width="512" height="512" viewBox="0 0 512 512">
  <g id="Group_41" data-name="Group 41">
    <g id="Group_40" data-name="Group 40">
      <circle id="Ellipse_79" data-name="Ellipse 79" cx="256" cy="256" r="256" fill="none"/>
    </g>
  </g>
  <path id="Path_18" data-name="Path 18" d="M229.739,211.638,132.433,316.027,320.476,503.806C430.648,475.221,512,375.113,512,256a257.288,257.288,0,0,0-4.735-49.163l-96.5-96.5-42.851,78.411L242.65,63.485l-36.756,36.778,39.523,39.523-5.1,5.763L193.29,98.525,159.15,137.6,312.218,290.672l-1.261,2.308Z" fill="none"/>
  <g id="Group_42" data-name="Group 42">
    <rect id="Rectangle_38" data-name="Rectangle 38" width="45.859" height="242.297" transform="matrix(0.988, 0.152, -0.152, 0.988, 345.885, 124.602)" fill="#f05e3a"/>
  </g>
  <g id="Group_43" data-name="Group 43">
    <rect id="Rectangle_39" data-name="Rectangle 39" width="45.859" height="242.297" transform="matrix(0.988, 0.152, -0.152, 0.988, 365.45, 103.381)" fill="#ff8257"/>
  </g>
  <g id="Group_44" data-name="Group 44">
    <path id="Path_19" data-name="Path 19" d="M410.769,110.341l-25.432-3.913-32.826,240.1,21.41,3.294Z" fill="#ff7045"/>
  </g>
  <g id="Group_45" data-name="Group 45">
    <path id="Path_20" data-name="Path 20" d="M262,345H212.4A124.865,124.865,0,0,1,87.535,220.132v-49.6h49.6A124.866,124.866,0,0,1,262,295.4Z" fill="#abea0f"/>
  </g>
  <g id="Group_46" data-name="Group 46">
    <path id="Path_21" data-name="Path 21" d="M262,295.4A124.866,124.866,0,0,0,137.134,170.533h-49.6L262,344.452Z" fill="#a7d80e"/>
  </g>
  <g id="Group_47" data-name="Group 47">
    <path id="Path_22" data-name="Path 22" d="M237.351,418.119h0A99.444,99.444,0,0,1,320.6,304.758l.01,0h0a99.444,99.444,0,0,1-83.252,113.361Z" fill="#fad17f"/>
  </g>
  <g id="Group_48" data-name="Group 48">
    <path id="Path_23" data-name="Path 23" d="M263.139,383.006h0A68.636,68.636,0,0,1,320.6,304.762h.007a68.636,68.636,0,0,1-57.461,78.244Z" fill="#dbad5c"/>
  </g>
  <g id="Group_49" data-name="Group 49">
    <path id="Path_24" data-name="Path 24" d="M182.1,279.29l.009-.006a99.509,99.509,0,0,1,138.4,25.251l.1.141-.009.007a99.509,99.509,0,0,1-138.4-25.251Z" fill="#edc472"/>
  </g>
  <g id="Group_50" data-name="Group 50">
    <path id="Path_25" data-name="Path 25" d="M231.571,288.361l.005,0a63.964,63.964,0,0,1,88.963,16.231l.061.088-.005,0a63.964,63.964,0,0,1-88.963-16.231Z" fill="#dbad5c"/>
  </g>
  <g id="Group_51" data-name="Group 51">
    <path id="Path_26" data-name="Path 26" d="M403.822,418.119h0A99.444,99.444,0,0,0,320.57,304.758l-.01,0h0a99.444,99.444,0,0,0,83.252,113.361Z" fill="#e8ba64"/>
  </g>
  <g id="Group_52" data-name="Group 52">
    <path id="Path_27" data-name="Path 27" d="M378.035,383.006h0a68.639,68.639,0,0,0-57.462-78.245h-.006a68.639,68.639,0,0,0,57.462,78.245Z" fill="#cc9f56"/>
  </g>
  <g id="Group_53" data-name="Group 53">
    <path id="Path_28" data-name="Path 28" d="M459.076,279.29l-.009-.006a99.51,99.51,0,0,0-138.4,25.252l-.1.14.009.007a99.51,99.51,0,0,0,138.4-25.252Z" fill="#e8ba64"/>
  </g>
  <g id="Group_54" data-name="Group 54">
    <path id="Path_29" data-name="Path 29" d="M409.6,288.361l-.005,0a63.964,63.964,0,0,0-88.963,16.231l-.061.088.005,0a63.964,63.964,0,0,0,88.963-16.231Z" fill="#cc9f56"/>
  </g>
  <g id="Group_55" data-name="Group 55">
    <path id="Path_30" data-name="Path 30" d="M320.575,304.759l0,0a99.453,99.453,0,0,1-.012-140.639l.014-.014,0,0a99.453,99.453,0,0,1,.012,140.639Z" fill="#fad17f"/>
  </g>
  <g id="Group_56" data-name="Group 56">
    <path id="Path_31" data-name="Path 31" d="M320.573,304.757l0,0,.014-.014a99.452,99.452,0,0,0-.012-140.638l0,0-.014.014Z" fill="#e8ba64"/>
  </g>
  <g id="Group_57" data-name="Group 57">
    <path id="Path_32" data-name="Path 32" d="M320.575,304.76l-.008-.008a73.889,73.889,0,0,1,.007-104.5h0l.008.008a73.887,73.887,0,0,1-.007,104.5Z" fill="#dbad5c"/>
  </g>
  <g id="Group_58" data-name="Group 58">
    <path id="Path_33" data-name="Path 33" d="M320.567,304.752l.008.008h0a73.888,73.888,0,0,0,.007-104.5l-.008-.008h0Z" fill="#cc9f56"/>
  </g>
  <g id="Group_59" data-name="Group 59">
    <circle id="Ellipse_80" data-name="Ellipse 80" cx="26" cy="26" r="26" transform="translate(149 91)" fill="#ffce00"/>
  </g>
  <g id="Group_60" data-name="Group 60">
    <path id="Path_34" data-name="Path 34" d="M175,91c-.12,0-.238.007-.357.009v51.982c.119,0,.237.009.357.009a26,26,0,0,0,0-52Z" fill="#ffa300"/>
  </g>
  <g id="Group_61" data-name="Group 61">
    <circle id="Ellipse_81" data-name="Ellipse 81" cx="26" cy="26" r="26" transform="translate(219.573 111.604)" fill="#ffce00"/>
  </g>
  <g id="Group_62" data-name="Group 62">
    <path id="Path_35" data-name="Path 35" d="M245.573,111.6l-.1,0v52l.1,0a26,26,0,1,0,0-52Z" fill="#ffa300"/>
  </g>
  <g id="Group_63" data-name="Group 63">
    <circle id="Ellipse_82" data-name="Ellipse 82" cx="26" cy="26" r="26" transform="translate(198.324 55.926)" fill="#ffce00"/>
  </g>
  <g id="Group_64" data-name="Group 64">
    <path id="Path_36" data-name="Path 36" d="M224.324,55.926c-.292,0-.582.013-.872.022V107.9c.29.009.58.022.872.022a26,26,0,0,0,0-52Z" fill="#ffa300"/>
  </g>
</svg>
