<svg id="outline" height="512" viewBox="0 0 512 512" width="512" xmlns="http://www.w3.org/2000/svg"><circle cx="80" cy="456" r="8"/><path d="m256 368h16v16h-16z"/><path d="m288 368h16v16h-16z"/><path d="m240 304h-32a8.00039 8.00039 0 0 0 -8 8v32a8.00039 8.00039 0 0 0 8 8h32a8.00039 8.00039 0 0 0 8-8v-32a8.00039 8.00039 0 0 0 -8-8zm-8 32h-16v-16h16z"/><path d="m408 368h16v16h-16z"/><path d="m440 368h16v16h-16z"/><path d="m360 352h32a8.00039 8.00039 0 0 0 8-8v-32a8.00039 8.00039 0 0 0 -8-8h-32a8.00039 8.00039 0 0 0 -8 8v32a8.00039 8.00039 0 0 0 8 8zm8-32h16v16h-16z"/><path d="m256 240h16v16h-16z"/><path d="m288 240h16v16h-16z"/><path d="m208 224h32a8.00039 8.00039 0 0 0 8-8v-32a8.00039 8.00039 0 0 0 -8-8h-32a8.00039 8.00039 0 0 0 -8 8v32a8.00039 8.00039 0 0 0 8 8zm8-32h16v16h-16z"/><path d="m408 240h16v16h-16z"/><path d="m440 240h16v16h-16z"/><path d="m360 224h32a8.00039 8.00039 0 0 0 8-8v-32a8.00039 8.00039 0 0 0 -8-8h-32a8.00039 8.00039 0 0 0 -8 8v32a8.00039 8.00039 0 0 0 8 8zm8-32h16v16h-16z"/><path d="m480 16h-304a8.00039 8.00039 0 0 0 -8 8v392h-21.10425l-45.77466-38.14551a7.99881 7.99881 0 0 0 -5.12109-1.85449h-8v-134.46l15.42773-38.56934a7.99723 7.99723 0 0 0 .57227-2.97066v-32a8.00039 8.00039 0 0 0 -8-8h-64a8.00039 8.00039 0 0 0 -8 8v32a7.99723 7.99723 0 0 0 .57227 2.9707l15.42773 38.5693v134.46h-8a8.00039 8.00039 0 0 0 -8 8v64a8.00039 8.00039 0 0 0 8 8h8a40 40 0 0 0 80 0h48v32a8.00039 8.00039 0 0 0 8 8h48a8.00039 8.00039 0 0 0 8-8v-32h64v32a8.00039 8.00039 0 0 0 8 8h48a8.00039 8.00039 0 0 0 8-8v-32h64v32a8.00039 8.00039 0 0 0 8 8h48a8.00039 8.00039 0 0 0 8-8v-464a8.00039 8.00039 0 0 0 -8-8zm-296 424v-24h288v24zm288-168h-136v-112h136zm0 128h-136v-112h136zm-288 0v-112h136v112zm136-128h-136v-112h136zm152-128h-136v-112h136zm-288-112h136v112h-136zm-144 144h48v22.459l-13.416 33.541h-2.584v-40h-16v40h-2.584l-13.416-33.541zm16 72h16v128h-16zm24 232a24 24 0 1 1 24-24 24.0275 24.0275 0 0 1 -24 24zm36.6499-40a39.98365 39.98365 0 0 0 -73.2998 0h-3.3501v-48h53.10352l42.89648 35.74707v12.25293zm35.3501-8h16v8h-16zm64 48h-32v-24h32zm128 0h-32v-24h32zm128 0h-32v-24h32z"/><path d="m256 112h16v16h-16z"/><path d="m288 112h16v16h-16z"/><path d="m240 48h-32a8.00039 8.00039 0 0 0 -8 8v32a8.00039 8.00039 0 0 0 8 8h32a8.00039 8.00039 0 0 0 8-8v-32a8.00039 8.00039 0 0 0 -8-8zm-8 32h-16v-16h16z"/><path d="m408 112h16v16h-16z"/><path d="m440 112h16v16h-16z"/><path d="m360 96h32a8.00039 8.00039 0 0 0 8-8v-32a8.00039 8.00039 0 0 0 -8-8h-32a8.00039 8.00039 0 0 0 -8 8v32a8.00039 8.00039 0 0 0 8 8zm8-32h16v16h-16z"/></svg>